<?xml version="1.0" standalone="no"?>
<!DOCTYPE svg PUBLIC "-//W3C//DTD SVG 20010904//EN"
 "http://www.w3.org/TR/2001/REC-SVG-20010904/DTD/svg10.dtd">
<svg version="1.0" xmlns="http://www.w3.org/2000/svg"
 width="360.000000pt" height="360.000000pt" viewBox="0 0 360.000000 360.000000"
 preserveAspectRatio="xMidYMid meet">
<metadata>
Created by potrace 1.14, written by Peter Selinger 2001-2017
</metadata>
<g transform="translate(0.000000,360.000000) scale(0.100000,-0.100000)"
fill="#000000" stroke="none">
<path d="M0 1800 l0 -1800 1800 0 1800 0 0 1800 0 1800 -1800 0 -1800 0 0
-1800z m1884 1464 c83 -62 103 -83 30 -34 -25 18 -48 29 -51 26 -3 -3 -19 4
-35 15 -28 20 -30 20 -48 4 -11 -10 -32 -19 -47 -21 -28 -2 -27 -2 12 32 22
18 45 34 52 34 6 0 46 -25 87 -56z m-65 -48 c14 -56 14 -136 1 -136 -5 0 -10
-7 -10 -15 0 -29 -17 -14 -29 25 -11 37 -9 90 5 158 7 32 20 20 33 -32z m-205
-40 c-3 -8 -26 -19 -52 -26 -62 -17 -70 -26 -31 -34 18 -3 29 -9 26 -12 -3 -4
-20 -1 -38 5 -35 12 -89 15 -89 4 0 -3 10 -20 23 -37 13 -17 27 -38 32 -46 10
-19 -60 56 -86 93 l-20 27 33 1 c18 0 69 9 113 19 44 10 83 18 87 19 4 0 5 -5
2 -13z m462 -6 c49 -11 101 -20 117 -20 27 0 27 0 11 -25 -13 -20 -19 -23 -30
-14 -13 11 -46 9 -114 -5 -23 -5 -23 -5 3 6 37 16 34 24 -10 33 -45 8 -73 22
-73 35 0 12 -9 13 96 -10z m-418 -108 c26 -23 18 -19 -28 14 -77 54 -87 64
-42 38 19 -10 50 -34 70 -52z m72 -8 c34 -35 67 -64 73 -63 7 0 36 29 66 65
32 37 63 64 74 64 15 0 12 -6 -15 -27 -45 -38 -81 -81 -95 -116 -17 -38 -16
-72 0 -37 16 35 39 64 57 75 9 5 8 0 -4 -13 -34 -39 -10 -34 38 8 52 44 79 56
31 12 -43 -38 -84 -94 -117 -161 -23 -45 -28 -50 -24 -24 3 19 1 33 -7 36 -7
3 -21 35 -32 72 -17 59 -28 75 -82 125 -33 32 -53 55 -43 53 10 -3 46 -34 80
-69z m291 57 c-33 -26 -81 -53 -81 -47 0 8 84 65 95 65 6 0 -1 -8 -14 -18z
m149 -16 c0 -8 -4 -15 -10 -15 -5 0 -7 7 -4 15 4 8 8 15 10 15 2 0 4 -7 4 -15z
m-620 -43 c14 -9 26 -26 28 -37 2 -11 20 -37 40 -57 20 -21 31 -38 25 -38 -7
0 -15 5 -18 10 -3 6 -12 10 -18 10 -7 0 1 -12 16 -25 35 -31 29 -31 -20 -3
-54 31 -84 55 -102 81 -14 21 -14 21 5 6 10 -9 35 -20 54 -23 29 -6 33 -5 20
6 -8 7 -35 38 -60 68 -30 37 -37 49 -20 37 14 -9 36 -25 50 -35z m542 11 c-17
-21 -45 -51 -62 -68 l-33 -30 18 28 c13 21 14 27 4 27 -8 0 -6 5 6 12 11 6 36
24 55 40 46 37 48 35 12 -9z m-417 -43 c10 -11 25 -19 34 -18 21 4 57 -72 65
-137 l7 -50 -20 42 c-25 54 -78 131 -110 161 -17 15 -19 22 -9 22 8 0 23 -9
33 -20z m439 -5 c-4 -8 -11 -15 -16 -15 -6 0 -5 6 2 15 7 8 14 15 16 15 2 0 1
-7 -2 -15z m-1234 -12 c-52 -17 -70 -21 -70 -17 0 8 43 23 65 23 13 -1 15 -2
5 -6z m1924 -25 c40 -28 113 -117 121 -150 11 -45 -87 -189 -128 -188 -7 1 0
7 15 16 15 8 34 26 41 41 15 28 11 39 -42 90 -19 18 -22 26 -13 35 9 9 12 8
12 -4 0 -9 8 -23 18 -30 10 -7 23 -22 29 -33 11 -19 12 -18 18 8 5 17 2 33 -5
42 -7 8 -10 24 -7 34 7 26 -38 118 -66 133 -12 7 -38 18 -57 25 l-35 13 33 -5
c18 -3 48 -15 66 -27z m-1442 12 c6 0 3 -10 -8 -22 l-19 -22 32 22 c32 22 68
26 113 12 l25 -7 -25 -11 c-24 -10 -24 -11 10 -12 19 0 42 -5 50 -10 13 -9 13
-12 -2 -20 -9 -6 -23 -17 -31 -25 -8 -8 -17 -11 -20 -8 -4 3 -13 -10 -22 -28
l-16 -34 86 -210 c124 -298 211 -503 235 -552 11 -23 20 -47 20 -53 0 -23 18
-8 32 28 9 20 32 73 52 117 94 209 268 644 269 673 1 20 -6 39 -17 50 -12 10
-16 11 -11 3 5 -8 -8 -2 -28 14 -43 35 -35 55 22 55 36 1 36 1 12 14 -24 13
-23 14 26 21 41 5 57 3 80 -12 23 -14 26 -15 15 -2 -21 27 24 31 87 7 36 -13
93 -23 156 -27 81 -5 107 -11 138 -30 44 -27 44 -39 1 -16 -39 20 -46 19 -103
-9 -60 -31 -138 -115 -172 -187 l-27 -54 -6 -600 c-4 -330 -10 -608 -13 -619
-3 -11 -1 -16 5 -12 6 4 19 -5 29 -20 61 -88 167 -175 194 -158 8 5 9 3 4 -6
-6 -10 -4 -12 9 -7 9 4 14 3 11 -2 -3 -5 4 -13 16 -16 11 -4 18 -9 15 -12 -7
-8 -79 18 -99 35 -10 9 -18 12 -17 7 6 -28 -6 -30 -184 -25 -196 5 -228 4
-205 -11 10 -6 8 -8 -9 -6 -12 0 -22 3 -22 5 0 2 23 37 50 79 l50 76 0 515 c0
320 -4 512 -9 506 -5 -5 -35 -70 -66 -144 -104 -245 -196 -464 -230 -540 -18
-41 -35 -84 -39 -94 -5 -15 -18 4 -56 83 -28 57 -50 104 -50 106 0 4 -214 530
-233 572 -10 23 -13 -66 -17 -486 -4 -422 -7 -515 -19 -519 -11 -4 -11 -6 0
-13 11 -7 10 -9 -3 -9 -17 0 -18 31 -19 503 -1 276 0 514 1 529 1 14 -3 29 -9
33 -8 4 -12 -56 -13 -197 -1 -112 -3 -185 -5 -164 -3 29 -7 36 -14 25 -5 -9
-9 -10 -9 -2 0 6 5 15 10 18 7 4 7 13 0 25 -13 24 -19 119 -8 126 4 3 8 11 8
17 0 8 -3 8 -9 -2 -12 -19 -18 -3 -20 62 -2 49 1 57 16 57 17 1 17 1 1 14 -14
11 -18 34 -21 137 -1 68 -4 -63 -5 -291 -1 -228 -5 -507 -9 -619 l-6 -203 -31
-19 c-17 -10 -26 -19 -21 -19 6 0 2 -5 -8 -11 -9 -6 -15 -14 -12 -18 2 -5 -18
-30 -46 -56 -37 -34 -44 -46 -28 -40 39 13 285 18 308 6 17 -9 19 -8 16 7 -1
9 -13 34 -25 55 -12 21 -20 40 -18 43 5 4 98 -137 98 -148 0 -3 -7 -5 -15 -5
-8 0 -12 4 -9 9 3 4 -82 8 -188 8 -120 0 -198 4 -204 10 -13 13 -47 1 -41 -14
5 -13 -88 -15 -100 -2 -4 5 -1 7 9 3 10 -3 46 8 86 28 65 33 116 79 180 160
13 17 21 22 18 12 -4 -11 -2 -16 5 -12 6 4 8 14 5 22 -3 8 -6 284 -6 614 l-1
601 -28 56 c-48 94 -104 156 -175 193 -63 33 -64 33 -105 17 -51 -20 -52 -16
-3 14 29 18 57 24 137 29 62 4 121 14 155 27 30 11 61 19 68 16 8 -2 18 -4 24
-4z m712 -29 c-10 -10 -41 -30 -69 -46 l-50 -28 24 27 c14 14 19 26 13 26 -6
0 -14 -4 -17 -10 -3 -5 -11 -10 -17 -10 -6 0 -1 11 12 25 13 14 25 23 27 21 2
-2 23 2 46 9 50 15 58 11 31 -14z m-1286 2 c-21 -26 -60 -95 -55 -100 2 -2 10
3 17 12 7 8 18 15 24 15 6 0 3 -5 -6 -10 -20 -12 -52 -94 -45 -114 5 -13 14
-9 44 19 20 18 41 31 46 28 5 -3 -3 -13 -18 -23 -15 -10 -35 -32 -46 -49 l-20
-32 35 -35 c19 -19 31 -34 27 -34 -15 0 -70 67 -96 115 -38 72 -32 87 67 193
32 33 52 45 26 15z m2062 -88 c19 -22 8 -25 -12 -3 -10 10 -14 18 -9 18 5 0
14 -7 21 -15z m-1802 -115 c53 -32 74 -76 68 -139 -7 -80 -38 -119 -135 -169
-45 -24 -87 -40 -94 -36 -7 4 -9 4 -5 -1 4 -4 -13 -21 -38 -38 -26 -17 -63
-52 -84 -79 -35 -44 -39 -46 -45 -27 -5 15 2 34 21 63 29 41 75 69 210 126
101 42 154 103 154 177 0 102 -109 163 -207 116 -19 -9 -40 -27 -46 -40 -10
-22 -27 -32 -27 -14 0 12 52 62 75 72 39 15 119 10 153 -11z m1655 9 c34 -18
77 -61 77 -78 0 -10 -10 -4 -26 17 -47 60 -110 77 -179 48 -61 -26 -92 -110
-66 -179 19 -50 80 -94 189 -138 115 -46 175 -93 185 -145 8 -46 -2 -48 -32
-7 -44 59 -139 131 -202 152 -20 6 -57 25 -82 41 -113 71 -116 227 -7 282 40
20 111 23 143 7z m-702 -26 c13 -16 12 -17 -3 -4 -10 7 -18 15 -18 17 0 8 8 3
21 -13z m-1021 -20 c-49 -9 -64 -41 -36 -79 14 -18 15 -18 22 0 4 10 2 21 -5
25 -21 13 15 34 46 26 24 -6 25 -5 13 12 -8 10 -2 7 13 -6 94 -85 -62 -193
-188 -131 -22 11 -31 17 -20 14 11 -4 50 -9 86 -12 64 -4 68 -3 100 28 l34 32
-31 -18 c-43 -23 -83 -12 -97 27 -7 17 -17 27 -24 25 -16 -6 -16 -1 -2 25 13
24 44 38 84 37 27 -1 27 -1 5 -5z m1699 -8 c32 -16 49 -45 26 -45 -8 0 -15 -5
-15 -12 0 -19 -42 -58 -62 -58 -11 0 -28 5 -39 10 -13 7 -19 7 -19 1 0 -6 14
-18 32 -27 31 -16 125 -16 173 0 11 3 2 -3 -20 -14 -30 -16 -54 -20 -99 -17
-51 3 -63 8 -87 35 -32 36 -37 77 -14 108 8 10 15 13 15 7 0 -8 10 -11 28 -7
19 4 32 1 41 -10 9 -11 10 -16 2 -16 -6 0 -11 -9 -11 -20 0 -27 14 -25 29 4
17 31 0 63 -36 69 l-28 4 28 2 c15 0 41 -6 56 -14z m-893 -133 c-21 -41 -64
-90 -90 -104 -11 -6 0 12 27 40 26 28 52 63 59 77 6 14 13 23 15 21 3 -2 -2
-18 -11 -34z m-586 -112 c-13 -49 -44 -71 -108 -76 -39 -4 -43 -3 -23 6 41 18
101 71 101 89 0 10 8 40 18 67 l17 49 3 -47 c2 -26 -2 -65 -8 -88z m679 46
c30 -32 32 -36 10 -22 -27 17 -79 84 -79 101 0 5 7 -2 16 -15 10 -14 33 -42
53 -64z m547 -12 c-5 -13 40 -34 126 -60 64 -19 73 -32 11 -15 l-38 10 25 -18
c13 -11 38 -23 55 -26 20 -5 25 -9 13 -12 -16 -4 -81 28 -138 67 -36 24 -50
32 -50 26 0 -2 28 -23 61 -45 57 -38 59 -41 32 -41 -16 0 -35 6 -42 13 -11 10
-13 10 -7 0 11 -19 -8 -15 -37 7 -30 24 -47 76 -46 140 l1 45 19 -40 c10 -22
17 -45 15 -51z m-1271 -33 c-17 -16 -133 -79 -157 -85 -13 -3 -9 0 9 9 38 18
51 35 26 36 -10 0 11 11 47 24 73 26 89 30 75 16z m606 -54 c-10 -9 -11 -8 -5
6 3 10 9 15 12 12 3 -3 0 -11 -7 -18z m89 -2 c14 -19 14 -19 -2 -6 -10 7 -18
18 -18 24 0 6 1 8 3 6 1 -2 9 -13 17 -24z m799 -70 c47 -15 127 -65 143 -89
20 -29 -4 -48 -45 -38 -14 4 -15 7 -6 13 24 14 18 39 -14 55 -64 34 -188 -3
-219 -64 -17 -35 -25 -33 -28 8 -4 48 0 59 35 80 43 27 44 39 5 47 -16 3 -30
9 -30 13 0 10 101 -6 159 -25z m-1566 14 c-37 -11 -42 -24 -14 -39 35 -18 51
-41 51 -73 0 -50 -15 -64 -30 -28 -20 49 -73 76 -152 76 -52 0 -71 -4 -85 -18
-17 -17 -17 -18 2 -12 18 6 19 6 2 -5 -13 -9 -15 -15 -7 -25 13 -15 -11 -28
-35 -19 -24 10 -18 30 20 63 62 54 158 90 240 89 l40 0 -32 -9z m-498 -169 c3
-6 -1 -7 -9 -4 -18 7 -21 14 -7 14 6 0 13 -4 16 -10z m145 -55 c5 -11 11 -37
15 -57 4 -28 23 -57 75 -113 86 -92 92 -111 10 -30 -100 98 -147 190 -125 242
8 17 8 17 12 -2 2 -11 8 -29 13 -40z m2151 -60 c-20 -46 -110 -149 -146 -167
-11 -6 8 18 42 53 62 64 83 100 83 142 0 13 8 34 18 47 l17 25 3 -27 c2 -15
-6 -48 -17 -73z m-1068 -15 c-5 -19 -23 -29 -23 -12 0 7 20 32 26 32 1 0 0 -9
-3 -20z m-1313 -25 c19 -19 30 -35 24 -35 -9 0 -74 57 -74 66 0 12 20 0 50
-31z m2614 -4 c-15 -17 -32 -31 -38 -31 -5 0 5 16 24 35 41 42 53 39 14 -4z
m-2011 -128 c-7 -2 -21 -2 -30 0 -10 3 -4 5 12 5 17 0 24 -2 18 -5z m1422 -3
c-11 -5 -31 -9 -45 -9 -23 0 -23 1 -5 9 11 5 31 9 45 9 23 0 23 -1 5 -9z
m-1899 -27 c-8 -8 -36 5 -36 17 0 7 6 7 21 0 11 -7 18 -14 15 -17z m255 -68
l-7 -40 -18 27 c-10 15 -32 36 -49 47 -27 17 -29 21 -11 21 11 0 25 -5 32 -12
9 -9 12 -5 12 17 l0 30 24 -25 c21 -21 23 -31 17 -65z m1872 53 c-6 -31 -6
-31 18 -15 43 31 42 18 -2 -22 -45 -40 -59 -39 -59 7 0 19 31 62 45 62 2 0 2
-14 -2 -32z m244 16 c-3 -3 -12 -4 -19 -1 -8 3 -5 6 6 6 11 1 17 -2 13 -5z
m-403 -173 c11 -12 14 -21 8 -21 -13 0 -52 62 -51 81 0 8 6 2 12 -13 7 -14 21
-36 31 -47z m-1556 34 c-6 -14 -13 -23 -15 -21 -5 5 15 46 22 46 3 0 -1 -11
-7 -25z m-324 -33 c3 -5 -8 -6 -25 -4 -16 2 -29 6 -29 8 0 8 49 4 54 -4z
m2033 -98 c-3 -3 -12 -4 -19 -1 -8 3 -5 6 6 6 11 1 17 -2 13 -5z m-2100 -50
c-5 -5 -57 13 -57 20 0 3 14 0 31 -6 16 -6 28 -12 26 -14z m2358 17 c-6 -5
-21 -11 -35 -15 -21 -5 -20 -3 5 9 35 17 42 18 30 6z m-351 -42 c-10 -17 -70
-39 -101 -38 -21 1 -16 3 16 10 24 5 53 15 65 23 26 18 29 19 20 5z m-1659
-27 c-3 -3 -11 0 -18 7 -9 10 -8 11 6 5 10 -3 15 -9 12 -12z m58 -9 c-7 -2
-21 -2 -30 0 -10 3 -4 5 12 5 17 0 24 -2 18 -5z m1803 -282 c-29 -30 -121 -83
-166 -96 -21 -5 -20 -3 8 14 39 25 41 33 5 26 l-28 -6 28 16 c33 19 35 28 4
16 -17 -7 -29 -4 -45 7 -21 16 -18 17 61 18 53 0 94 6 117 16 47 22 48 22 16
-11z m-2042 -3 c27 -6 70 -7 97 -4 41 6 48 4 43 -9 -6 -15 -20 -19 -59 -16
-14 1 -9 -5 15 -18 38 -22 36 -27 -3 -12 -38 15 -42 -1 -5 -21 27 -15 28 -17
8 -12 -47 11 -107 44 -146 80 -25 23 -32 33 -19 29 11 -3 42 -11 69 -17z m217
-305 c13 -16 12 -17 -3 -4 -10 7 -18 15 -18 17 0 8 8 3 21 -13z m1559 14 c0
-2 -10 -12 -22 -23 l-23 -19 19 23 c18 21 26 27 26 19z m-528 -204 c-3 -16 -7
-22 -10 -15 -4 13 4 42 11 42 2 0 2 -12 -1 -27z m-255 -189 c-3 -3 -12 -4 -19
-1 -8 3 -5 6 6 6 11 1 17 -2 13 -5z"/>
<path d="M1811 2894 c0 -11 3 -14 6 -6 3 7 2 16 -1 19 -3 4 -6 -2 -5 -13z"/>
<path d="M2168 2963 c7 -3 16 -2 19 1 4 3 -2 6 -13 5 -11 0 -14 -3 -6 -6z"/>
<path d="M1165 2875 c11 -8 35 -26 52 -41 30 -25 39 -27 105 -25 l73 2 27 -68
c15 -37 66 -162 113 -277 112 -273 238 -606 231 -613 -3 -3 -12 0 -21 7 -8 7
-15 9 -15 4 0 -8 -13 18 -85 173 -51 110 -37 60 24 -83 32 -76 73 -175 91
-218 l33 -79 19 37 c32 62 139 318 135 323 -2 2 -21 -36 -42 -84 -22 -49 -47
-97 -57 -109 -10 -11 -15 -24 -11 -29 5 -4 2 -5 -6 0 -10 6 -12 2 -6 -16 5
-19 4 -21 -4 -9 -15 21 -14 27 11 52 13 13 17 23 10 26 -11 3 -9 18 9 57 4 11
15 38 22 60 24 68 142 372 207 530 34 83 76 187 93 232 l32 83 72 0 c52 0 76
4 87 16 9 8 16 13 16 10 0 -3 8 1 18 9 9 8 26 21 37 29 18 14 6 15 -121 16
l-142 0 10 -39 c9 -37 1 -58 -177 -477 -103 -242 -191 -445 -195 -452 -4 -8
-35 52 -80 155 -40 92 -129 296 -197 452 -122 279 -127 293 -107 345 5 14 -10
16 -137 16 -127 -1 -142 -2 -124 -15z m589 -1055 l7 -25 -15 25 c-17 28 -21
50 -7 35 5 -6 12 -21 15 -35z"/>
<path d="M2262 2529 c-2 -130 -3 -136 -24 -147 l-23 -11 23 0 c20 -1 22 -5 22
-66 0 -37 -4 -65 -10 -65 -14 0 -12 -34 2 -48 10 -10 10 -15 -1 -21 -7 -5 -11
-13 -7 -19 9 -15 -3 -39 -19 -39 -13 0 -15 29 -17 171 l-2 171 -6 -145 c-4
-80 -8 -330 -9 -557 -1 -262 -5 -414 -11 -418 -5 -3 -10 -1 -10 4 0 6 -5 11
-11 11 -5 0 -8 -4 -5 -9 3 -5 -1 -12 -10 -15 -8 -3 -13 -10 -9 -16 3 -5 -3
-17 -14 -26 -10 -9 -17 -23 -14 -31 4 -10 9 -11 18 -3 15 13 265 9 305 -5 19
-6 14 2 -22 34 -26 23 -55 59 -64 80 -9 22 -22 37 -29 35 -31 -12 -35 42 -43
656 -5 338 -9 554 -10 479z m-22 -459 c0 -5 -2 -10 -4 -10 -3 0 -8 5 -11 10
-3 6 -1 10 4 10 6 0 11 -4 11 -10z"/>
<path d="M1570 2195 c0 -5 5 -17 10 -25 5 -8 10 -10 10 -5 0 6 -5 17 -10 25
-5 8 -10 11 -10 5z"/>
<path d="M1590 2145 c0 -5 5 -17 10 -25 5 -8 10 -10 10 -5 0 6 -5 17 -10 25
-5 8 -10 11 -10 5z"/>
<path d="M1962 2065 c-17 -37 -14 -45 4 -12 9 16 14 31 11 33 -2 2 -9 -7 -15
-21z"/>
<path d="M1851 1874 c0 -11 3 -14 6 -6 3 7 2 16 -1 19 -3 4 -6 -2 -5 -13z"/>
<path d="M1219 1323 c-13 -16 -12 -17 4 -4 9 7 17 15 17 17 0 8 -8 3 -21 -13z"/>
</g>
</svg>
